<svg aria-hidden="true" style="position: absolute; width: 0; height: 0; overflow: hidden;" version="1.1" xmlns="http://www.w3.org/2000/svg" xmlns:xlink="http://www.w3.org/1999/xlink">
<defs>
<symbol id="icon-map" viewBox="0 0 32 32">
<path d="M18.035 5.714c0-1.64-1.334-2.974-2.974-2.974s-2.974 1.334-2.974 2.974c0 1.64 1.334 2.974 2.974 2.974s2.974-1.334 2.974-2.974zM13.339 5.714c0-0.95 0.772-1.722 1.722-1.722s1.722 0.772 1.722 1.722c0 0.95-0.773 1.722-1.722 1.722s-1.722-0.772-1.722-1.722z"></path>
<path d="M31.668 6.668c-1.996-1.686-4.121-2.505-6.494-2.505-1.49 0-2.975 0.329-4.447 0.829-0.356-2.811-2.761-4.992-5.667-4.992-3.151 0-5.714 2.563-5.714 5.714 0 0.958 0.499 2.274 1.19 3.636-1.248 0.399-2.491 0.654-3.711 0.655-0 0-0.001 0-0.001 0-2.064 0-3.924-0.723-5.684-2.21-0.186-0.157-0.447-0.192-0.668-0.090s-0.362 0.324-0.362 0.568v20.743c0 0.184 0.081 0.359 0.222 0.478 1.996 1.686 4.121 2.505 6.494 2.505 3.2 0 6.374-1.516 9.444-2.982 2.944-1.406 5.988-2.86 8.904-2.86 2.065 0 3.925 0.723 5.686 2.21 0.186 0.157 0.447 0.192 0.668 0.090s0.362-0.324 0.362-0.568v-20.743c0-0.184-0.081-0.359-0.222-0.478zM15.061 1.252c2.46 0 4.462 2.002 4.462 4.462 0 1.908-2.87 6.285-4.462 8.493-1.592-2.208-4.462-6.585-4.462-8.493 0-2.46 2.002-4.462 4.462-4.462zM15.733 19.707c-0.941 0.449-1.907 0.911-2.864 1.323v-2.506c0-0.207-0.103-0.401-0.274-0.518-0.274-0.187-0.583-0.064-0.583-0.064-0.883 0.351-1.685 0.617-2.43 0.807v-4.7c1.050-0.245 2.095-0.608 3.132-1.030 0.885 1.336 1.65 2.361 1.848 2.622 0.118 0.157 0.303 0.249 0.5 0.249s0.381-0.092 0.5-0.249c0.329-0.436 2.236-2.994 3.649-5.579v8.064c-1.167 0.479-2.339 1.039-3.476 1.582zM19.209 19.484v3.691c-1.169 0.48-2.344 1.040-3.483 1.584-0.939 0.448-1.902 0.908-2.857 1.32v-3.689c0.016-0.006 6.322-2.897 6.34-2.905zM4.337 20.048c0.802 0.218 1.635 0.328 2.489 0.328 0.716 0 1.472-0.077 2.248-0.229 0.005-0.001 0.009-0.002 0.014-0.003 0.785-0.154 1.619-0.39 2.528-0.715v7.158c-1.851 0.701-3.382 1.029-4.791 1.029-0.873 0-1.692-0.125-2.489-0.38v-7.188l-0-0zM4.337 18.744v-4.683c0.801 0.218 1.635 0.328 2.489 0.328 0 0 0 0 0 0 0.502 0 1.002-0.037 1.502-0.106v4.723c-0.519 0.078-1.022 0.118-1.503 0.118-0.873-0-1.692-0.125-2.489-0.38zM30.638 26.626c-1.696-1.156-3.494-1.72-5.463-1.72-3.2 0-6.374 1.516-9.444 2.982-2.944 1.406-5.988 2.86-8.904 2.86-1.978 0-3.768-0.663-5.463-2.027v-19.184c1.696 1.156 3.493 1.72 5.462 1.72 0 0 0.001 0 0.001 0 1.446-0 2.886-0.31 4.314-0.785 0.284 0.502 0.583 0.998 0.881 1.474-1.745 0.693-3.492 1.189-5.195 1.189-1.022-0-1.968-0.171-2.893-0.522-0.192-0.073-0.408-0.047-0.578 0.070s-0.271 0.31-0.271 0.515v14.481c0 0.26 0.161 0.493 0.404 0.585 1.055 0.4 2.178 0.603 3.337 0.603 1.671 0 3.466-0.404 5.648-1.271 1.271-0.505 2.552-1.117 3.792-1.709 1.249-0.596 2.54-1.213 3.799-1.709h0c0 0 0 0 0-0 1.995-0.786 3.619-1.153 5.11-1.153 1.021 0 1.967 0.171 2.892 0.522 0.192 0.073 0.409 0.047 0.578-0.070s0.27-0.31 0.27-0.515v-14.481c0-0.26-0.161-0.493-0.404-0.585-1.055-0.4-2.177-0.603-3.337-0.603-1.537 0-3.175 0.341-5.122 1.069 0.322-0.736 0.562-1.433 0.665-2.039 1.498-0.542 2.993-0.908 4.456-0.908 1.978 0 3.768 0.663 5.463 2.027v19.184zM23.907 18.823c0.022 0.345 0.32 0.607 0.665 0.585 1.097-0.071 2.113 0.047 3.091 0.361v2.335c-0.801-0.218-1.635-0.328-2.488-0.328-1.428 0-2.943 0.294-4.713 0.92v-9.352c2.891-1.082 5.147-1.277 7.201-0.62v5.739c-1.010-0.276-2.055-0.377-3.171-0.305-0.345 0.022-0.607 0.32-0.585 0.665zM27.663 11.419c-2.616-0.711-5.133-0.146-7.201 0.589v-2.462c1.816-0.681 3.322-1 4.713-1 0.873 0 1.691 0.125 2.488 0.38v2.492z"></path>
</symbol>
<symbol id="icon-star" viewBox="0 0 32 32">
<path d="M32 12.306l-11.007-1.631-5.049-9.916-4.952 9.965-10.991 1.738 7.947 7.789-1.744 10.99 9.864-5.151 9.913 5.054-1.851-10.973z"></path>
</symbol>
<symbol id="icon-portfolio" viewBox="0 0 32 32">
<path fill="#ffd488" style="fill: var(--color1, #ffd488)" d="M11.13 7.304h-2.087v-2.783l2.087-0.696z"></path>
<path fill="#ffb739" style="fill: var(--color2, #ffb739)" d="M22.957 7.304h-2.087v-3.478l2.087 0.696z"></path>
<path fill="#233145" style="fill: var(--color3, #233145)" d="M16 2.435l-1.391 1.043 1.391 1.043h6.957v-2.087z"></path>
<path fill="#466289" style="fill: var(--color4, #466289)" d="M9.043 2.435h6.957v2.087h-6.957v-2.087z"></path>
<path fill="#466289" style="fill: var(--color4, #466289)" d="M14.609 16.348l1.391 13.217h16v-18.087z"></path>
<path fill="#233145" style="fill: var(--color3, #233145)" d="M32 6.609v4.87l-13.217 5.565-4.174 0.696 1.391-11.13z"></path>
<path fill="#6b81a1" style="fill: var(--color5, #6b81a1)" d="M0 11.478v18.087h16v-13.217z"></path>
<path fill="#466289" style="fill: var(--color4, #466289)" d="M16 6.609v11.13l-2.783-0.696-13.217-5.565v-4.87z"></path>
<path fill="#fb992d" style="fill: var(--color6, #fb992d)" d="M18.783 19.13v2.087h-2.783l-0.696-2.087 1.635-0.696z"></path>
<path fill="#ffb739" style="fill: var(--color2, #ffb739)" d="M18.783 17.043v2.087h-3.478l0.696-2.087z"></path>
<path fill="#ffb739" style="fill: var(--color2, #ffb739)" d="M16 19.13v2.087h-2.783v-2.087l1.391-0.696z"></path>
<path fill="#ffd488" style="fill: var(--color1, #ffd488)" d="M13.217 17.043h2.783v2.087h-2.783v-2.087z"></path>
</symbol>
<symbol id="icon-mail" viewBox="0 0 32 32">
<path d="M31.763 13.455l0-0-4.086-2.709v-9.055c0-0.293-0.237-0.53-0.53-0.53h-22.294c-0.293 0-0.53 0.237-0.53 0.53v9.055l-4.085 2.708c-0.143 0.095-0.237 0.257-0.237 0.442v16.413c0 0.293 0.237 0.53 0.53 0.53h30.94c0.293 0 0.53-0.237 0.53-0.53v-16.413c0-0.184-0.094-0.347-0.237-0.442zM4.323 15.308l-1.662-0.882h1.662v0.882zM1.060 14.777l12.188 6.465-12.188 8.079v-14.544zM16 20.69l13.712 9.089h-27.423l13.712-9.089zM18.752 21.243l12.188-6.465v14.544l-12.188-8.079zM27.677 14.426h1.663l-1.663 0.882v-0.882zM29.711 13.366h-2.035v-1.349l2.035 1.349zM26.617 2.221v13.65l-8.87 4.705-1.454-0.964c-0.177-0.118-0.408-0.118-0.586 0l-1.454 0.964-8.871-4.706v-13.649h21.234zM4.323 13.366h-2.034l2.034-1.348v1.348z"></path>
<path d="M16 15.099h4.223c0.293 0 0.53-0.237 0.53-0.53s-0.237-0.53-0.53-0.53h-4.223c-2.036 0-3.693-1.656-3.693-3.693v-0.156c0-2.036 1.656-3.693 3.693-3.693s3.693 1.656 3.693 3.693v0.391c0 0.441-0.359 0.799-0.799 0.799s-0.799-0.359-0.799-0.799v-0.743c0-1.262-1.027-2.289-2.289-2.289s-2.289 1.027-2.289 2.289c0 1.262 1.027 2.289 2.289 2.289 0.577 0 1.105-0.215 1.508-0.569 0.328 0.529 0.914 0.882 1.581 0.882 1.025 0 1.859-0.834 1.859-1.859v-0.391c0-2.621-2.132-4.753-4.753-4.753s-4.753 2.132-4.753 4.753v0.156c0 2.621 2.132 4.753 4.753 4.753zM15.804 11.068c-0.678 0-1.229-0.551-1.229-1.229s0.552-1.229 1.229-1.229 1.229 0.552 1.229 1.229-0.551 1.229-1.229 1.229z"></path>
</symbol>
<symbol id="icon-tel" viewBox="0 0 32 32">
<path d="M9.819 3.544h3.829c0.294 0 0.533-0.239 0.533-0.533s-0.239-0.533-0.533-0.533h-3.829c-0.294 0-0.533 0.239-0.533 0.533s0.239 0.533 0.533 0.533z"></path>
<path d="M11.733 27.551c-0.749 0-1.359 0.61-1.359 1.359s0.61 1.359 1.359 1.359 1.359-0.61 1.359-1.359-0.61-1.359-1.359-1.359zM11.733 29.202c-0.161 0-0.293-0.131-0.293-0.293s0.131-0.293 0.293-0.293 0.293 0.131 0.293 0.293-0.131 0.293-0.293 0.293z"></path>
<path d="M28.686 7.517h-6.852v-5.421c0-1.156-0.94-2.096-2.096-2.096h-16.008c-1.156 0-2.096 0.94-2.096 2.096v27.809c0 1.155 0.94 2.095 2.096 2.095h16.009c1.156 0 2.096-0.94 2.096-2.095v-9.445h6.852c0.927 0 1.681-0.754 1.681-1.681v-9.58c-0-0.927-0.754-1.681-1.681-1.681zM20.767 29.905c0 0.567-0.462 1.029-1.030 1.029h-16.009c-0.568 0-1.030-0.462-1.030-1.029v-27.809c0-0.568 0.462-1.030 1.030-1.030h16.009c0.568 0 1.030 0.462 1.030 1.030v5.421h-0.81v-2.124c0-0.295-0.239-0.533-0.533-0.533h-15.382c-0.295 0-0.533 0.239-0.533 0.533v21.214c0 0.294 0.239 0.533 0.533 0.533h15.381c0.294 0 0.533-0.239 0.533-0.533v-5.605l0.778-0.543h0.032v9.445zM13.23 20.46h2.334v2.585c0 0.199 0.11 0.381 0.287 0.473 0.078 0.040 0.162 0.061 0.247 0.061 0.107 0 0.214-0.032 0.305-0.096l2.489-1.736v4.328h-14.315v-20.147h14.315v1.59h-5.661c-0.927 0-1.681 0.754-1.681 1.681v9.58c0 0.927 0.754 1.681 1.681 1.681zM29.3 18.778c0 0.339-0.276 0.615-0.615 0.615h-8.118c-0.109 0-0.216 0.034-0.305 0.096l-3.633 2.533v-2.096c0-0.294-0.239-0.533-0.533-0.533h-2.867c-0.339 0-0.615-0.276-0.615-0.615v-9.58c0-0.339 0.276-0.615 0.615-0.615h15.456c0.339 0 0.615 0.276 0.615 0.615v9.58z"></path>
<path d="M26.539 10.796h-11.164c-0.294 0-0.533 0.239-0.533 0.533s0.239 0.533 0.533 0.533h11.164c0.294 0 0.533-0.239 0.533-0.533s-0.239-0.533-0.533-0.533z"></path>
<path d="M26.539 13.455h-11.164c-0.294 0-0.533 0.239-0.533 0.533s0.239 0.533 0.533 0.533h11.164c0.294 0 0.533-0.239 0.533-0.533s-0.239-0.533-0.533-0.533z"></path>
<path d="M26.539 16.114h-11.164c-0.294 0-0.533 0.239-0.533 0.533s0.239 0.533 0.533 0.533h11.164c0.294 0 0.533-0.239 0.533-0.533s-0.239-0.533-0.533-0.533z"></path>
</symbol>
<symbol id="icon-github" viewBox="0 0 32 32">
<path d="M16 0c-8.835 0-16 7.164-16 16 0 7.069 4.584 13.067 10.943 15.183 0.799 0.148 1.057-0.348 1.057-0.769v-2.979c-4.451 0.968-5.377-1.888-5.377-1.888-0.728-1.849-1.777-2.341-1.777-2.341-1.452-0.993 0.111-0.972 0.111-0.972 1.607 0.112 2.452 1.649 2.452 1.649 1.427 2.445 3.743 1.739 4.656 1.329 0.143-1.033 0.557-1.74 1.016-2.139-3.553-0.407-7.289-1.779-7.289-7.908 0-1.748 0.625-3.175 1.648-4.295-0.165-0.404-0.713-2.032 0.156-4.235 0 0 1.344-0.429 4.401 1.64 1.276-0.355 2.644-0.532 4.004-0.539 1.36 0.007 2.729 0.184 4.008 0.539 3.055-2.069 4.396-1.64 4.396-1.64 0.871 2.204 0.323 3.832 0.157 4.235 1.027 1.12 1.647 2.548 1.647 4.295 0 6.145-3.743 7.499-7.305 7.895 0.573 0.496 1.097 1.469 1.097 2.963v4.391c0 0.425 0.256 0.925 1.068 0.768 6.353-2.119 10.932-8.115 10.932-15.181 0-8.836-7.164-16-16-16z"></path>
</symbol>
<symbol id="icon-link" viewBox="0 0 32 32">
<path d="M29.857 2.143c-2.857-2.857-7.506-2.858-10.363-0.002l0.001 0.001-4.521 4.522 2.087 2.086 4.521-4.523c1.707-1.704 4.483-1.703 6.189 0.003s1.706 4.483 0 6.189l-6.785 6.784c-0.826 0.827-1.925 1.282-3.094 1.282s-2.268-0.455-3.095-1.282l-2.087 2.087c1.384 1.384 3.224 2.146 5.182 2.146s3.798-0.762 5.181-2.146l6.785-6.784c2.856-2.858 2.856-7.506-0-10.363z"></path>
<path d="M10.419 27.771v0c-1.707 1.706-4.483 1.705-6.189-0.001s-1.706-4.484-0-6.19l6.784-6.784c1.707-1.706 4.483-1.706 6.19 0l2.087-2.087c-2.857-2.857-7.506-2.857-10.363 0l-6.784 6.784c-2.856 2.857-2.856 7.506 0 10.364 1.429 1.429 3.305 2.143 5.182 2.143s3.752-0.714 5.181-2.142l0-0 4.522-4.523-2.087-2.087-4.522 4.523z"></path>
</symbol>
<symbol id="icon-strike" viewBox="0 0 32 32">
<path fill="#b1ffff" style="fill: var(--color1, #b1ffff)" d="M11.852 18.502h2.213v-16.007h3.871v16.007h2.213l-4.148 4.786z"></path>
<path fill="#304ffe" style="fill: var(--color2, #304ffe)" d="M25.517 16.050h-5.13v-16.007h-8.774v16.007h-5.13l9.517 10.982 9.517-10.982zM12.645 17.082v-16.007h6.71v16.007h3.902l-7.257 8.373-7.257-8.374h3.902z"></path>
<path fill="#304ffe" style="fill: var(--color2, #304ffe)" d="M23.226 22.043l-7.226 8.338-7.226-8.338h-8.774v1.032h8.303l7.697 8.882 7.697-8.882h8.303v-1.032z"></path>
</symbol>
<symbol id="icon-button" viewBox="0 0 32 32">
<path d="M32 3.223l-3.223-3.223-12.777 12.777-12.777-12.777-3.223 3.223 12.777 12.777-12.777 12.777 3.223 3.223 12.777-12.777 12.777 12.777 3.223-3.223-12.777-12.777 12.777-12.777z"></path>
</symbol>
<symbol id="icon-arrow" viewBox="0 0 32 32">
<path d="M29.185 16.645h-27.256"></path>
<path d="M23.053 11.516l6.89 4.95-6.726 5.5"></path>
</symbol>
</defs>
</svg>
